<?xml version="1.0" standalone="no"?>
<!DOCTYPE svg PUBLIC "-//W3C//DTD SVG 20010904//EN"
 "http://www.w3.org/TR/2001/REC-SVG-20010904/DTD/svg10.dtd">
<svg version="1.0" xmlns="http://www.w3.org/2000/svg"
 width="1500.000000pt" height="1500.000000pt" viewBox="0 0 500.000000 500.000000"
 preserveAspectRatio="xMidYMid meet">

<g transform="translate(0.000000,500.000000) scale(0.100000,-0.100000)"
fill="#000000" stroke="none">
<path d="M840 3061 l0 -161 85 0 85 0 0 -330 0 -329 170 -3 c93 -2 246 -2 340
0 l170 3 1 52 1 52 12 -50 12 -50 117 -9 c64 -5 172 -5 241 -1 l124 7 7 51
c11 88 10 87 70 87 l53 0 7 -70 7 -70 392 0 392 0 26 103 26 102 1 -101 1
-102 253 -4 c138 -2 357 -2 485 0 l232 5 0 153 0 154 -105 0 -105 0 0 335 0
335 -467 -2 -467 -3 -36 -232 c-19 -127 -38 -234 -41 -237 -3 -3 -20 94 -38
217 -18 122 -35 230 -37 240 -5 16 -32 17 -394 17 -362 0 -389 -1 -394 -17 -3
-10 -15 -60 -27 -112 l-21 -93 -29 53 c-35 65 -76 102 -149 138 l-55 26 -472
3 -473 3 0 -160z m498 1 c2 -85 0 -103 -13 -108 -13 -5 -15 -49 -15 -335 l0
-329 -125 0 -125 0 0 330 0 330 -85 0 -85 0 0 110 0 110 223 -2 222 -3 3 -103z
m130 -5 l3 -107 -41 0 -40 0 0 108 0 107 37 0 38 -1 3 -107z m368 78 c126 -62
172 -210 119 -382 -8 -29 -26 -65 -39 -80 -20 -23 -22 -31 -13 -60 8 -27 4
-60 -24 -178 l-34 -145 -42 0 c-49 0 -41 -17 -82 179 -26 122 -27 126 -54 129
l-27 3 0 -155 0 -156 -125 0 -125 0 0 305 0 304 68 3 67 3 3 134 3 134 125 -6
c109 -4 132 -8 180 -32z m619 13 c42 -178 197 -827 201 -840 5 -17 -6 -18
-130 -18 -152 0 -139 -7 -151 88 l-7 52 -98 0 -98 0 -7 -70 -7 -70 -47 0 -48
0 -47 149 -47 150 17 58 c25 90 41 156 74 308 17 77 36 157 41 178 l10 37 169
0 c168 0 170 0 175 -22z m355 18 c0 -10 81 -543 86 -568 5 -23 11 -28 35 -28
16 0 29 2 29 5 0 11 81 550 85 573 5 20 11 22 70 22 l65 0 0 -247 0 -248 -46
-192 -47 -193 -158 0 -158 0 -10 38 c-21 76 -201 825 -201 833 0 5 56 9 125 9
69 0 125 -2 125 -4z m482 -21 c-1 -11 -16 -72 -31 -135 l-29 -115 -1 131 c-1
72 2 133 5 137 3 3 18 5 32 4 21 -2 26 -7 24 -22z m298 -85 l0 -110 -55 0 -55
0 0 -70 0 -70 55 0 55 0 0 -85 0 -85 -55 0 -55 0 0 -70 0 -70 55 0 55 0 0
-105 0 -105 -180 0 -180 0 0 183 0 182 60 248 c33 136 62 252 65 258 4 5 58 9
121 9 l114 0 0 -110z m120 -2 l0 -108 -30 0 -30 0 0 103 c0 57 2 106 4 108 2
2 16 4 30 4 l26 0 0 -107z m180 -223 l0 -335 105 0 105 0 0 -105 0 -105 -165
0 -165 0 0 130 0 130 -60 0 c-53 0 -60 2 -60 20 0 16 7 20 35 20 l35 0 0 135
0 135 -35 0 c-28 0 -35 4 -35 20 0 18 7 20 55 20 l55 0 0 128 c0 71 3 132 7
135 3 4 33 7 65 7 l58 0 0 -335z m-290 45 c0 -16 -7 -20 -35 -20 -28 0 -35 4
-35 20 0 16 7 20 35 20 28 0 35 -4 35 -20z m70 -155 c0 -50 -4 -85 -10 -85 -6
0 -10 35 -10 85 0 50 4 85 10 85 6 0 10 -35 10 -85z m-70 -155 c0 -16 -7 -20
-35 -20 -28 0 -35 4 -35 20 0 16 7 20 35 20 28 0 35 -4 35 -20z m120 -175 l0
-105 -35 0 -35 0 0 105 0 105 35 0 35 0 0 -105z m-1740 -14 l28 -91 -55 0
c-47 0 -54 2 -49 18 2 9 12 52 22 94 10 43 19 76 22 74 2 -2 16 -45 32 -95z"/>
<path d="M1640 2870 l0 -100 35 0 c53 0 75 28 75 95 0 46 -4 60 -25 80 -15 16
-36 25 -55 25 l-30 0 0 -100z m57 -22 c-2 -13 -4 -3 -4 22 0 25 2 35 4 23 2
-13 2 -33 0 -45z"/>
<path d="M2240 2888 c0 -7 -9 -68 -19 -136 -10 -67 -15 -124 -13 -127 10 -9
132 -5 132 5 0 14 -30 221 -35 248 -4 17 -12 22 -35 22 -17 0 -30 -5 -30 -12z
m36 -205 c-11 -11 -17 4 -9 23 7 18 8 18 11 1 2 -10 1 -21 -2 -24z"/>
<path d="M1977 2023 c-42 -109 -43 -113 -24 -113 8 0 31 44 54 105 34 87 38
105 24 105 -11 0 -27 -29 -54 -97z"/>
<path d="M2111 2084 c-65 -54 -26 -159 57 -152 24 2 38 9 40 19 2 12 -5 14
-31 11 -27 -3 -38 1 -51 19 -22 31 -20 55 5 80 16 16 29 20 50 15 32 -6 42 17
13 28 -30 11 -53 6 -83 -20z"/>
<path d="M2303 2100 c-31 -13 -56 -65 -48 -101 20 -88 161 -90 178 -2 14 77
-56 133 -130 103z m75 -36 c41 -28 18 -104 -31 -104 -49 0 -75 64 -40 102 20
22 42 23 71 2z"/>
<path d="M2498 2103 c-15 -4 -18 -17 -18 -90 l0 -86 52 5 c63 6 88 32 88 89 0
43 -27 79 -59 79 -11 0 -25 2 -33 4 -7 2 -21 2 -30 -1z m82 -52 c16 -31 12
-59 -12 -75 -39 -28 -48 -21 -48 39 0 52 1 55 25 55 14 0 29 -8 35 -19z"/>
<path d="M2676 2102 c-4 -3 -6 -43 -6 -89 l0 -83 50 0 c37 0 50 4 50 14 0 9
-12 16 -32 18 -25 2 -33 8 -33 23 0 14 8 21 28 23 15 2 27 7 27 12 0 5 -12 10
-27 12 -20 2 -28 9 -28 23 0 15 8 21 33 23 47 5 35 27 -16 28 -22 1 -43 -1
-46 -4z"/>
<path d="M2841 2101 c-28 -8 -41 -31 -17 -31 13 0 16 -13 16 -70 0 -56 3 -70
15 -70 12 0 15 17 15 90 0 50 -1 90 -2 89 -2 -1 -14 -4 -27 -8z"/>
<path d="M2975 2094 c-20 -21 -55 -89 -55 -109 0 -46 81 -72 113 -37 33 37 9
102 -37 102 -16 0 -16 2 -2 22 27 38 13 54 -19 22z m43 -98 c5 -23 -23 -47
-44 -39 -15 5 -19 44 -7 57 13 13 48 1 51 -18z"/>
<path d="M1843 2044 c-29 -13 -53 -27 -53 -32 0 -7 102 -62 115 -62 3 0 5 6 5
13 0 7 -17 21 -37 31 l-38 18 38 15 c20 8 37 21 37 29 0 18 -4 17 -67 -12z"/>
<path d="M3090 2057 c0 -8 17 -21 38 -29 l37 -15 -37 -18 c-21 -10 -38 -25
-38 -32 0 -17 3 -17 60 12 28 14 50 31 50 39 0 7 -21 22 -47 32 -27 11 -51 21
-55 22 -5 2 -8 -3 -8 -11z"/>
</g>
</svg>
