<?xml version="1.0" encoding="UTF-8"?>
<svg xmlns="http://www.w3.org/2000/svg" xmlns:xlink="http://www.w3.org/1999/xlink" width="100px" height="60px" viewBox="0 0 100 60" version="1.1">
<g id="surface1">
<path style=" stroke:none;fill-rule:nonzero;fill:rgb(0%,0%,0%);fill-opacity:1;" d="M 16.800781 23.269531 L 16.800781 25.199219 L 20.199219 25.199219 L 20.199219 33.109375 L 23.601562 33.144531 C 25.460938 33.167969 28.519531 33.167969 30.398438 33.144531 L 33.800781 33.109375 L 33.839844 31.859375 L 34.078125 32.460938 L 34.320312 33.058594 L 36.660156 33.167969 C 37.941406 33.226562 40.101562 33.226562 41.480469 33.179688 L 43.960938 33.097656 L 44.101562 32.484375 C 44.320312 31.429688 44.300781 31.441406 45.5 31.441406 L 46.558594 31.441406 L 46.839844 33.121094 L 62.519531 33.121094 L 63.039062 31.882812 L 63.558594 30.660156 L 63.578125 31.871094 L 63.601562 33.097656 L 68.660156 33.144531 C 71.421875 33.167969 75.800781 33.167969 78.359375 33.144531 L 83 33.085938 L 83 29.398438 L 78.800781 29.398438 L 78.800781 21.359375 L 69.460938 21.382812 L 60.121094 21.421875 L 59.398438 24.203125 C 59.019531 25.726562 58.640625 27.011719 58.578125 27.046875 C 58.519531 27.085938 58.179688 25.921875 57.820312 24.445312 C 57.460938 22.980469 57.121094 21.683594 57.078125 21.5625 C 56.980469 21.371094 56.441406 21.359375 49.199219 21.359375 C 41.960938 21.359375 41.421875 21.371094 41.320312 21.5625 C 41.261719 21.683594 41.019531 22.285156 40.78125 22.90625 L 40.359375 24.023438 L 39.78125 23.386719 C 39.078125 22.609375 38.261719 22.164062 36.800781 21.730469 L 35.699219 21.421875 L 26.261719 21.382812 L 16.800781 21.347656 Z M 26.761719 23.257812 C 26.800781 24.277344 26.761719 24.492188 26.5 24.550781 C 26.238281 24.613281 26.199219 25.140625 26.199219 28.570312 L 26.199219 32.519531 L 21.199219 32.519531 L 21.199219 24.601562 L 17.800781 24.601562 L 17.800781 21.960938 L 22.261719 21.984375 L 26.699219 22.019531 Z M 29.359375 23.316406 L 29.421875 24.601562 L 27.800781 24.601562 L 27.800781 22.019531 L 28.539062 22.019531 L 29.300781 22.03125 Z M 36.71875 22.378906 C 39.238281 23.125 40.160156 24.898438 39.101562 26.964844 C 38.941406 27.3125 38.578125 27.742188 38.320312 27.925781 C 37.921875 28.199219 37.878906 28.296875 38.058594 28.644531 C 38.21875 28.96875 38.140625 29.363281 37.578125 30.78125 L 36.898438 32.519531 L 36.058594 32.519531 C 35.078125 32.519531 35.238281 32.722656 34.421875 30.371094 C 33.898438 28.90625 33.878906 28.859375 33.339844 28.824219 L 32.800781 28.789062 L 32.800781 32.519531 L 27.800781 32.519531 L 27.800781 25.210938 L 29.160156 25.175781 L 30.5 25.140625 L 30.558594 23.53125 L 30.621094 21.925781 L 33.121094 21.996094 C 35.300781 22.042969 35.761719 22.09375 36.71875 22.378906 Z M 49.101562 22.222656 C 49.941406 24.359375 53.039062 32.148438 53.121094 32.304688 C 53.21875 32.507812 53 32.519531 50.519531 32.519531 C 47.480469 32.519531 47.738281 32.605469 47.5 31.464844 L 47.359375 30.839844 L 43.441406 30.839844 L 43.160156 32.519531 L 41.261719 32.519531 L 40.320312 30.730469 L 39.378906 28.933594 L 39.71875 28.234375 C 40.21875 27.15625 40.539062 26.363281 41.199219 24.539062 C 41.539062 23.617188 41.921875 22.65625 42.019531 22.402344 L 42.21875 21.960938 L 45.601562 21.960938 C 48.960938 21.960938 49 21.960938 49.101562 22.222656 Z M 56.199219 22.007812 C 56.199219 22.128906 57.820312 28.523438 57.921875 28.824219 C 58.019531 29.101562 58.140625 29.160156 58.621094 29.160156 C 58.941406 29.160156 59.199219 29.136719 59.199219 29.101562 C 59.199219 28.96875 60.820312 22.5 60.898438 22.222656 C 61 21.984375 61.121094 21.960938 62.300781 21.960938 L 63.601562 21.960938 L 63.601562 27.898438 L 62.679688 30.203125 L 61.738281 32.519531 L 55.421875 32.519531 L 55.21875 32.0625 C 54.800781 31.152344 51.199219 22.164062 51.199219 22.066406 C 51.199219 22.007812 52.320312 21.960938 53.699219 21.960938 C 55.078125 21.960938 56.199219 21.984375 56.199219 22.007812 Z M 65.839844 22.261719 C 65.820312 22.390625 65.519531 23.125 65.21875 23.878906 L 64.640625 25.261719 L 64.621094 23.6875 C 64.601562 22.824219 64.660156 22.09375 64.71875 22.042969 C 64.78125 22.007812 65.078125 21.984375 65.359375 21.996094 C 65.78125 22.019531 65.878906 22.078125 65.839844 22.261719 Z M 71.800781 23.28125 L 71.800781 24.601562 L 69.601562 24.601562 L 69.601562 26.28125 L 71.800781 26.28125 L 71.800781 28.320312 L 69.601562 28.320312 L 69.601562 30 L 71.800781 30 L 71.800781 32.519531 L 64.601562 32.519531 L 64.601562 28.140625 L 65.800781 25.164062 C 66.460938 23.53125 67.039062 22.140625 67.101562 22.066406 C 67.179688 22.007812 68.261719 21.960938 69.519531 21.960938 L 71.800781 21.960938 Z M 74.199219 23.304688 L 74.199219 24.601562 L 73 24.601562 L 73 23.363281 C 73 22.679688 73.039062 22.09375 73.078125 22.066406 C 73.121094 22.042969 73.398438 22.019531 73.679688 22.019531 L 74.199219 22.019531 Z M 77.800781 25.980469 L 77.800781 30 L 82 30 L 82 32.519531 L 75.398438 32.519531 L 75.398438 29.398438 L 74.199219 29.398438 C 73.140625 29.398438 73 29.375 73 29.160156 C 73 28.96875 73.140625 28.921875 73.699219 28.921875 L 74.398438 28.921875 L 74.398438 25.679688 L 73.699219 25.679688 C 73.140625 25.679688 73 25.632812 73 25.441406 C 73 25.222656 73.140625 25.199219 74.101562 25.199219 L 75.199219 25.199219 L 75.199219 23.664062 C 75.199219 22.8125 75.261719 22.078125 75.339844 22.042969 C 75.398438 21.996094 76 21.960938 76.640625 21.960938 L 77.800781 21.960938 Z M 72 25.441406 C 72 25.632812 71.859375 25.679688 71.300781 25.679688 C 70.738281 25.679688 70.601562 25.632812 70.601562 25.441406 C 70.601562 25.246094 70.738281 25.199219 71.300781 25.199219 C 71.859375 25.199219 72 25.246094 72 25.441406 Z M 73.398438 27.300781 C 73.398438 27.898438 73.320312 28.320312 73.199219 28.320312 C 73.078125 28.320312 73 27.898438 73 27.300781 C 73 26.699219 73.078125 26.28125 73.199219 26.28125 C 73.320312 26.28125 73.398438 26.699219 73.398438 27.300781 Z M 72 29.160156 C 72 29.351562 71.859375 29.398438 71.300781 29.398438 C 70.738281 29.398438 70.601562 29.351562 70.601562 29.160156 C 70.601562 28.96875 70.738281 28.921875 71.300781 28.921875 C 71.859375 28.921875 72 28.96875 72 29.160156 Z M 74.398438 31.261719 L 74.398438 32.519531 L 73 32.519531 L 73 30 L 74.398438 30 Z M 39.601562 31.429688 L 40.160156 32.519531 L 39.058594 32.519531 C 38.121094 32.519531 37.980469 32.496094 38.078125 32.304688 C 38.121094 32.195312 38.320312 31.679688 38.519531 31.175781 C 38.71875 30.660156 38.898438 30.265625 38.960938 30.289062 C 39 30.3125 39.28125 30.828125 39.601562 31.429688 Z M 39.601562 31.429688 "/>
<path style=" stroke:none;fill-rule:nonzero;fill:rgb(0%,0%,0%);fill-opacity:1;" d="M 32.800781 25.558594 L 32.800781 26.761719 L 33.5 26.761719 C 34.558594 26.761719 35 26.425781 35 25.621094 C 35 25.066406 34.921875 24.898438 34.5 24.660156 C 34.199219 24.46875 33.78125 24.359375 33.398438 24.359375 L 32.800781 24.359375 Z M 33.941406 25.824219 C 33.898438 25.980469 33.859375 25.859375 33.859375 25.558594 C 33.859375 25.261719 33.898438 25.140625 33.941406 25.285156 C 33.980469 25.441406 33.980469 25.679688 33.941406 25.824219 Z M 33.941406 25.824219 "/>
<path style=" stroke:none;fill-rule:nonzero;fill:rgb(0%,0%,0%);fill-opacity:1;" d="M 44.800781 25.34375 C 44.800781 25.429688 44.621094 26.160156 44.421875 26.976562 C 44.21875 27.78125 44.121094 28.464844 44.160156 28.5 C 44.359375 28.609375 46.800781 28.558594 46.800781 28.441406 C 46.800781 28.273438 46.199219 25.789062 46.101562 25.464844 C 46.019531 25.261719 45.859375 25.199219 45.398438 25.199219 C 45.058594 25.199219 44.800781 25.261719 44.800781 25.34375 Z M 45.519531 27.804688 C 45.300781 27.9375 45.179688 27.757812 45.339844 27.527344 C 45.480469 27.3125 45.5 27.3125 45.558594 27.515625 C 45.601562 27.636719 45.578125 27.769531 45.519531 27.804688 Z M 45.519531 27.804688 "/>
<path style=" stroke:none;fill-rule:nonzero;fill:rgb(0%,0%,0%);fill-opacity:1;" d="M 39.539062 35.722656 C 38.699219 37.03125 38.679688 37.078125 39.058594 37.078125 C 39.21875 37.078125 39.679688 36.550781 40.140625 35.820312 C 40.820312 34.777344 40.898438 34.558594 40.621094 34.558594 C 40.398438 34.558594 40.078125 34.90625 39.539062 35.722656 Z M 39.539062 35.722656 "/>
<path style=" stroke:none;fill-rule:nonzero;fill:rgb(0%,0%,0%);fill-opacity:1;" d="M 42.21875 34.992188 C 40.921875 35.640625 41.699219 36.898438 43.359375 36.816406 C 43.839844 36.792969 44.121094 36.707031 44.160156 36.589844 C 44.199219 36.445312 44.058594 36.421875 43.539062 36.457031 C 43 36.492188 42.78125 36.445312 42.519531 36.226562 C 42.078125 35.855469 42.121094 35.566406 42.621094 35.269531 C 42.941406 35.074219 43.199219 35.027344 43.621094 35.089844 C 44.261719 35.160156 44.460938 34.882812 43.878906 34.753906 C 43.28125 34.621094 42.820312 34.679688 42.21875 34.992188 Z M 42.21875 34.992188 "/>
<path style=" stroke:none;fill-rule:nonzero;fill:rgb(0%,0%,0%);fill-opacity:1;" d="M 46.058594 34.800781 C 45.441406 34.957031 44.941406 35.578125 45.101562 36.011719 C 45.5 37.066406 48.320312 37.09375 48.660156 36.035156 C 48.941406 35.113281 47.539062 34.441406 46.058594 34.800781 Z M 47.558594 35.230469 C 48.378906 35.566406 47.921875 36.480469 46.941406 36.480469 C 45.960938 36.480469 45.441406 35.710938 46.140625 35.257812 C 46.539062 34.992188 46.980469 34.980469 47.558594 35.230469 Z M 47.558594 35.230469 "/>
<path style=" stroke:none;fill-rule:nonzero;fill:rgb(0%,0%,0%);fill-opacity:1;" d="M 49.960938 34.765625 C 49.660156 34.8125 49.601562 34.96875 49.601562 35.84375 L 49.601562 36.875 L 50.640625 36.816406 C 51.898438 36.742188 52.398438 36.433594 52.398438 35.746094 C 52.398438 35.230469 51.859375 34.800781 51.21875 34.800781 C 51 34.800781 50.71875 34.777344 50.558594 34.753906 C 50.421875 34.726562 50.140625 34.726562 49.960938 34.765625 Z M 51.601562 35.386719 C 51.921875 35.761719 51.839844 36.097656 51.359375 36.289062 C 50.578125 36.625 50.398438 36.539062 50.398438 35.820312 C 50.398438 35.195312 50.421875 35.160156 50.898438 35.160156 C 51.179688 35.160156 51.480469 35.257812 51.601562 35.386719 Z M 51.601562 35.386719 "/>
<path style=" stroke:none;fill-rule:nonzero;fill:rgb(0%,0%,0%);fill-opacity:1;" d="M 53.519531 34.777344 C 53.441406 34.8125 53.398438 35.292969 53.398438 35.84375 L 53.398438 36.839844 L 54.398438 36.839844 C 55.140625 36.839844 55.398438 36.792969 55.398438 36.671875 C 55.398438 36.5625 55.160156 36.480469 54.761719 36.457031 C 54.261719 36.433594 54.101562 36.359375 54.101562 36.179688 C 54.101562 36.011719 54.261719 35.929688 54.660156 35.902344 C 54.960938 35.878906 55.199219 35.820312 55.199219 35.761719 C 55.199219 35.699219 54.960938 35.640625 54.660156 35.617188 C 54.261719 35.59375 54.101562 35.507812 54.101562 35.339844 C 54.101562 35.160156 54.261719 35.089844 54.761719 35.0625 C 55.699219 35.003906 55.460938 34.738281 54.441406 34.726562 C 54 34.714844 53.578125 34.738281 53.519531 34.777344 Z M 53.519531 34.777344 "/>
<path style=" stroke:none;fill-rule:nonzero;fill:rgb(0%,0%,0%);fill-opacity:1;" d="M 56.820312 34.789062 C 56.261719 34.882812 56 35.160156 56.480469 35.160156 C 56.738281 35.160156 56.800781 35.316406 56.800781 36 C 56.800781 36.671875 56.859375 36.839844 57.101562 36.839844 C 57.339844 36.839844 57.398438 36.636719 57.398438 35.761719 C 57.398438 35.160156 57.378906 34.679688 57.359375 34.691406 C 57.320312 34.703125 57.078125 34.738281 56.820312 34.789062 Z M 56.820312 34.789062 "/>
<path style=" stroke:none;fill-rule:nonzero;fill:rgb(0%,0%,0%);fill-opacity:1;" d="M 59.5 34.871094 C 59.101562 35.125 58.398438 35.941406 58.398438 36.179688 C 58.398438 36.730469 60.019531 37.042969 60.660156 36.625 C 61.320312 36.179688 60.839844 35.398438 59.921875 35.398438 C 59.601562 35.398438 59.601562 35.375 59.878906 35.136719 C 60.421875 34.679688 60.140625 34.488281 59.5 34.871094 Z M 60.359375 36.046875 C 60.460938 36.324219 59.898438 36.613281 59.480469 36.515625 C 59.179688 36.457031 59.101562 35.988281 59.339844 35.832031 C 59.601562 35.675781 60.300781 35.820312 60.359375 36.046875 Z M 60.359375 36.046875 "/>
<path style=" stroke:none;fill-rule:nonzero;fill:rgb(0%,0%,0%);fill-opacity:1;" d="M 36.859375 35.472656 C 36.28125 35.628906 35.800781 35.796875 35.800781 35.855469 C 35.800781 35.941406 37.839844 36.601562 38.101562 36.601562 C 38.160156 36.601562 38.199219 36.527344 38.199219 36.445312 C 38.199219 36.359375 37.859375 36.191406 37.460938 36.070312 L 36.699219 35.855469 L 37.460938 35.675781 C 37.859375 35.578125 38.199219 35.425781 38.199219 35.328125 C 38.199219 35.113281 38.121094 35.125 36.859375 35.472656 Z M 36.859375 35.472656 "/>
<path style=" stroke:none;fill-rule:nonzero;fill:rgb(0%,0%,0%);fill-opacity:1;" d="M 61.800781 35.316406 C 61.800781 35.410156 62.140625 35.566406 62.558594 35.664062 L 63.300781 35.84375 L 62.558594 36.058594 C 62.140625 36.179688 61.800781 36.359375 61.800781 36.445312 C 61.800781 36.648438 61.859375 36.648438 63 36.300781 C 63.558594 36.132812 64 35.929688 64 35.832031 C 64 35.746094 63.578125 35.566406 63.058594 35.449219 C 62.519531 35.316406 62.039062 35.195312 61.960938 35.183594 C 61.859375 35.160156 61.800781 35.21875 61.800781 35.316406 Z M 61.800781 35.316406 "/>
</g>
</svg>
